<svg fill="none" height="128" viewBox="0 0 178 128" width="178" xmlns="http://www.w3.org/2000/svg"><clipPath id="a"><path d="M90 23h85v85H90z"/></clipPath><path d="M39.673 16H16.322C10.626 16 6 20.6 6 26.247v78.492C6 110.395 10.626 115 16.322 115h23.333C45.351 115 50 110.395 50 104.739V26.247C50 20.6 45.365 16 39.673 16z" fill="#fff"/><path d="M33.882 34.149l.025.334c.712.412 1.072.748 1.79 1.207 1.905 1.19 4.25 3.305 3.954 10.594.534 1.589.77 4.712 1.264 5.713.991 1.952 1.654 3.223 1.943 5.067 0 0 .285 2.868.66 3.076 1.969.441 1.4.633 1.687.968.305.392 1.443.374 1.443 1.425.395.524.629 1.068.852 1.635V26.246c0-4.322-3.485-7.746-7.824-7.746h-7.544c1.213.428 1.895.848 2.296 1.648.975.083 2.132 2.251.328 5.452.8.528.175 1.318-.397 2.235-.169.294-.351.815-.885.781-.684 1.43-1.512 2.818-2.138 2.906-.19.232-.328.848-.042 1.136.914.408 2.033.97 2.588 1.49zM47.5 69.306a6.956 6.956 0 01-6.495 4.401c-3.896 0-7.035-3.125-7.035-6.98 0-3.295 2.281-6.057 5.376-6.795-.812-2.015-2.522-5.28-3.03-6.352-.483-1.063-1.642-7.704-1.892-9.019-.057-.287-3.035 1.716-3.04 1.84-.174.166-2.235 5.509-2.32 5.797-.041.183-.046.896-.046.896s1.014.125 1.597 1.88c.576 1.752 2.336 8.15 2.336 8.15s-.477.49-.496.46c2.222 7.385 1.446 10.563 2.442 12.73 1.253 3.053 1.592 2.653 2.666 5.217.771 1.869 1.63 9.223 1.92 9.548 1.2 1.51 1.845 2.691 1.845 3.543 0 .857-1.016 3.389-.645 4.864.225.867.342 2.813.75 3.183 0 0 .373.73.19 1.054-.054.113-.16.282-.112.415.66 2.32 2.797 6.274-.662 8.345h.075c3.775-.581 6.576-3.796 6.576-7.743z" fill="#c8102e"/><path d="M38.668 103.236c-1.268-1.123-.422-1.598-.472-2.041-.836-3.428-3.578-5.503-2.16-6.635-.35-1.131-1.064-2.553-1.037-2.551-4.276-2.437-7.917-6.397-8.535-6.977-.75-.81-2.028-1.621-2.267-2.28-1.028-.935-6.068-8.032-7.241-10.646l-2.046-.286c-.93-3.773-4.036-6.935-4.112-10.719-.028-1.43.652-4.494.908-5.105.248-.62 1.439-1.636 1.439-1.636v-1.012c-4.462.127-3.178-.327-3.948-2.048-.54-1.194-.152-1.454.041-2.281.6-2.44 2.588-6.205 3.41-7.915.252-.863 1.112-2.944 1.112-2.944 3.325-6.722 4.566-6.228 8.515-6.606l.195-.278c3.958-.171 3.31-.467 3.868-4.252-.576.247-.748-1.184-.748-1.184-.316-2.154.599-1.746 1.033-1.788.092-3.54.46-4.577 3.031-5.552h-13.33c-4.36 0-7.824 3.43-7.824 7.757v78.489c0 4.33 3.64 7.754 8 7.754h23.171c-2.671-1.438-1.094-4.084-1.003-9.264z" fill="#1d418a"/><path d="M21 108.007V93.5h2.616c1.606 0 2.599.857 2.599 2.847v2.406c0 1.292-.398 1.95-.954 2.268.556.379.954 1.016.954 2.091v2.071c0 1.95-1.053 2.826-2.6 2.826h-2.777zm1.744-6.169v4.378h.734c.654 0 .833-.34.833-1.015v-2.705c0-.697-.218-1-.853-1h-.714zm0-6.547v4.993h.714c.676 0 .853-.239.853-1.015v-3.022c0-.658-.2-.956-.833-.956zm7.955 9.831h-1.726l-.24 2.885H26.81L28.536 93.5h2.737l1.667 14.507h-2.003zm-.854-10.03h-.1a688.306 688.306 0 01-.436 5.968l-.218 2.448h1.488l-.218-2.448c-.08-.973-.357-4.236-.516-5.967zm-14.679 12.915H13.5V93.5h2.64l2.121 11.94c-.179-2.786-.418-6.446-.418-9.311v-2.627H19.5v14.507h-2.41l-2.122-11.681c.138 2.627.196 5.014.196 7.203v4.476z" fill="#fff"/><path d="M69.5 74a7.5 7.5 0 100-15 7.5 7.5 0 000 15z" fill="#1d418a"/><path d="M69.5 74a7.5 7.5 0 100-15 7.5 7.5 0 000 15z" fill="#66888a"/><g clip-path="url(#a)"><path d="M173.298 66.492c0-3.014-.276-5.71-.778-8.492H132.5v16h23c-1.004 5.293-4.146 10.032-8.667 13.045v10.702h13.793c8.036-7.418 12.672-18.313 12.672-31.255z" fill="#4285f4"/><path d="M132.498 108.023c11.474 0 21.094-3.786 28.125-10.277l-13.792-10.701c-3.786 2.55-8.616 4.095-14.333 4.095-11.05 0-20.438-7.456-23.799-17.501h-14.14V84.61c6.992 13.87 21.326 23.412 37.939 23.412z" fill="#34a853"/><path d="M108.701 73.6c-.85-2.549-1.352-5.253-1.352-8.074 0-2.82.502-5.524 1.352-8.074V46.48h-14.14a41.973 41.973 0 00-4.559 19.046 41.973 41.973 0 004.559 19.047l11.011-8.577z" fill="#fbbc05"/><path d="M132.498 39.95c6.258 0 11.822 2.164 16.265 6.336l12.169-12.17c-7.379-6.877-16.96-11.088-28.434-11.088-16.613 0-30.947 9.543-37.94 23.451L108.7 57.452c3.361-10.045 12.749-17.502 23.799-17.502z" fill="#ea4335"/></g></svg>